<svg xmlns="http://www.w3.org/2000/svg" width="900" height="520" viewBox="0 0 900 520"><rect width="100%" height="100%" fill="white"/><text x="450.0" y="32" text-anchor="middle" font-family="sans-serif" font-size="20">Diagnostic CPU hot path</text><line x1="90" y1="440" x2="870" y2="440" stroke="black"/><line x1="90" y1="60" x2="90" y2="440" stroke="black"/><text x="450.0" y="500" text-anchor="middle" font-family="sans-serif">cProfile cumulative rank</text><text transform="translate(20 260.0) rotate(-90)" text-anchor="middle" font-family="sans-serif">cumulative seconds</text><polyline points="90.00,60.00 145.71,196.18 201.43,197.30 257.14,201.06 312.86,241.83 368.57,241.93 424.29,262.08 480.00,267.52 535.71,316.91 591.43,340.26 647.14,358.35 702.86,372.23 758.57,379.71 814.29,389.49 870.00,389.51" fill="none" stroke="#2563eb" stroke-width="2"/><circle cx="90.00" cy="60.00" r="4" fill="#2563eb"/><circle cx="145.71" cy="196.18" r="4" fill="#2563eb"/><circle cx="201.43" cy="197.30" r="4" fill="#2563eb"/><circle cx="257.14" cy="201.06" r="4" fill="#2563eb"/><circle cx="312.86" cy="241.83" r="4" fill="#2563eb"/><circle cx="368.57" cy="241.93" r="4" fill="#2563eb"/><circle cx="424.29" cy="262.08" r="4" fill="#2563eb"/><circle cx="480.00" cy="267.52" r="4" fill="#2563eb"/><circle cx="535.71" cy="316.91" r="4" fill="#2563eb"/><circle cx="591.43" cy="340.26" r="4" fill="#2563eb"/><circle cx="647.14" cy="358.35" r="4" fill="#2563eb"/><circle cx="702.86" cy="372.23" r="4" fill="#2563eb"/><circle cx="758.57" cy="379.71" r="4" fill="#2563eb"/><circle cx="814.29" cy="389.49" r="4" fill="#2563eb"/><circle cx="870.00" cy="389.51" r="4" fill="#2563eb"/><text x="690" y="60" font-family="sans-serif" fill="#2563eb">cumulative CPU</text><text x="82" y="444.00" text-anchor="end" font-family="sans-serif" font-size="11">0</text><text x="82" y="368.00" text-anchor="end" font-family="sans-serif" font-size="11">0.114</text><text x="82" y="292.00" text-anchor="end" font-family="sans-serif" font-size="11">0.229</text><text x="82" y="216.00" text-anchor="end" font-family="sans-serif" font-size="11">0.343</text><text x="82" y="140.00" text-anchor="end" font-family="sans-serif" font-size="11">0.458</text><text x="82" y="64.00" text-anchor="end" font-family="sans-serif" font-size="11">0.572</text></svg>
